<svg width="25.000000" height="25.000000" viewBox="0 0 25 25" fill="none" xmlns="http://www.w3.org/2000/svg" xmlns:xlink="http://www.w3.org/1999/xlink">
	<desc>
			Created with Pixso.
	</desc>
	<defs>
		<clipPath id="clip22_232">
			<rect rx="-0.500000" width="24.000000" height="24.000000" transform="translate(0.500000 0.500000)" fill="white" fill-opacity="0"/>
		</clipPath>
	</defs>
	<rect rx="-0.500000" width="24.000000" height="24.000000" transform="translate(0.500000 0.500000)" fill="#FFFFFF" fill-opacity="0"/>
	<g clip-path="url(#clip22_232)">
		<path d="M15.36 23.69L10.67 23.69L10.67 16.14L9.68 16.14C9.08 16.14 8.59 15.65 8.59 15.05L8.59 13.07C8.59 12.46 9.08 11.97 9.68 11.97L10.67 11.97L10.67 9.37C10.67 7.21 12.42 5.46 14.58 5.46L17.39 5.46C18 5.46 18.48 5.95 18.48 6.56L18.48 9.06C18.48 9.66 18 10.15 17.39 10.15L15.36 10.15L15.36 11.97L17.32 11.97C17.48 11.97 17.64 12.01 17.79 12.08C17.93 12.15 18.06 12.25 18.16 12.37C18.27 12.5 18.34 12.64 18.38 12.8C18.42 12.95 18.42 13.12 18.39 13.28L18 15.26C17.89 15.77 17.44 16.13 16.92 16.13L15.36 16.13L15.36 23.69ZM12.23 22.13L13.8 22.13L13.8 14.58L16.55 14.58L16.76 13.54L13.81 13.54L13.81 9.68C13.81 9.08 14.3 8.59 14.9 8.59L16.93 8.59L16.93 7.03L14.58 7.03C13.29 7.03 12.23 8.08 12.23 9.37L12.23 13.54L10.15 13.54L10.15 14.58L12.23 14.58L12.23 22.13Z" fill="#576067" fill-opacity="1.000000" fill-rule="nonzero"/>
		<path d="M15.62 23.69L9.37 23.69C3.71 23.69 1.3 21.28 1.3 15.62L1.3 9.37C1.3 3.71 3.71 1.3 9.37 1.3L15.62 1.3C21.28 1.3 23.69 3.71 23.69 9.37L23.69 15.62C23.69 21.28 21.28 23.69 15.62 23.69ZM9.37 2.86C4.57 2.86 2.86 4.57 2.86 9.37L2.86 15.62C2.86 20.42 4.57 22.13 9.37 22.13L15.62 22.13C20.42 22.13 22.13 20.42 22.13 15.62L22.13 9.37C22.13 4.57 20.42 2.86 15.62 2.86L9.37 2.86Z" fill="#576067" fill-opacity="1.000000" fill-rule="nonzero"/>
	</g>
</svg>
