<svg width="25.000000" height="25.000000" viewBox="0 0 25 25" fill="none" xmlns="http://www.w3.org/2000/svg" xmlns:xlink="http://www.w3.org/1999/xlink">
	<desc>
			Created with Pixso.
	</desc>
	<defs>
		<clipPath id="clip22_229">
			<rect rx="-0.500000" width="24.000000" height="24.000000" transform="translate(0.500000 0.500000)" fill="white" fill-opacity="0"/>
		</clipPath>
	</defs>
	<rect rx="-0.500000" width="24.000000" height="24.000000" transform="translate(0.500000 0.500000)" fill="#FFFFFF" fill-opacity="0"/>
	<g clip-path="url(#clip22_229)">
		<path d="M15.36 23.43L9.11 23.43C3.45 23.43 1.04 21.02 1.04 15.36L1.04 9.11C1.04 3.45 3.45 1.04 9.11 1.04L15.36 1.04C21.02 1.04 23.43 3.45 23.43 9.11L23.43 15.36C23.43 21.02 21.02 23.43 15.36 23.43ZM9.11 2.6C4.31 2.6 2.6 4.31 2.6 9.11L2.6 15.36C2.6 20.16 4.31 21.87 9.11 21.87L15.36 21.87C20.16 21.87 21.87 20.16 21.87 15.36L21.87 9.11C21.87 4.31 20.16 2.6 15.36 2.6L9.11 2.6Z" fill="#576067" fill-opacity="1.000000" fill-rule="nonzero"/>
		<path d="M12.5 16.92C11.32 16.92 10.2 16.45 9.37 15.62C8.54 14.79 8.07 13.67 8.07 12.5C8.07 11.32 8.54 10.2 9.37 9.37C10.2 8.54 11.32 8.07 12.5 8.07C13.67 8.07 14.79 8.54 15.62 9.37C16.45 10.2 16.92 11.32 16.92 12.5C16.92 13.67 16.45 14.79 15.62 15.62C14.79 16.45 13.67 16.92 12.5 16.92ZM12.5 9.63C10.91 9.63 9.63 10.91 9.63 12.5C9.63 14.08 10.91 15.36 12.5 15.36C14.08 15.36 15.36 14.08 15.36 12.5C15.36 10.91 14.08 9.63 12.5 9.63ZM17.7 7.81C17.57 7.81 17.43 7.78 17.31 7.72C17.18 7.67 17.07 7.6 16.96 7.51C16.87 7.4 16.79 7.29 16.73 7.16C16.68 7.04 16.66 6.9 16.66 6.77C16.66 6.63 16.68 6.5 16.73 6.37C16.8 6.23 16.87 6.13 16.96 6.03C17.02 5.98 17.07 5.93 17.12 5.9C17.18 5.86 17.25 5.83 17.31 5.81C17.5 5.73 17.71 5.71 17.91 5.75C18.11 5.79 18.3 5.88 18.44 6.03C18.54 6.13 18.61 6.23 18.66 6.37C18.71 6.5 18.75 6.63 18.75 6.77C18.75 6.9 18.71 7.04 18.66 7.16C18.61 7.29 18.54 7.4 18.44 7.51C18.34 7.6 18.22 7.67 18.1 7.72C17.97 7.78 17.84 7.81 17.7 7.81Z" fill="#576067" fill-opacity="1.000000" fill-rule="nonzero"/>
	</g>
</svg>
