<svg width="25.000000" height="25.000000" viewBox="0 0 25 25" fill="none" xmlns="http://www.w3.org/2000/svg" xmlns:xlink="http://www.w3.org/1999/xlink">
	<desc>
			Created with Pixso.
	</desc>
	<defs>
		<clipPath id="clip22_235">
			<rect rx="-0.500000" width="24.000000" height="24.000000" transform="translate(0.500000 0.500000)" fill="white" fill-opacity="0"/>
		</clipPath>
	</defs>
	<rect rx="-0.500000" width="24.000000" height="24.000000" transform="translate(0.500000 0.500000)" fill="#FFFFFF" fill-opacity="0"/>
	<g clip-path="url(#clip22_235)">
		<path d="M17.7 21.61L7.29 21.61C3.7 21.61 1.3 19.2 1.3 15.62L1.3 9.37C1.3 5.79 3.7 3.38 7.29 3.38L17.7 3.38C21.29 3.38 23.69 5.79 23.69 9.37L23.69 15.62C23.69 19.2 21.29 21.61 17.7 21.61ZM7.29 4.94C4.6 4.94 2.86 6.68 2.86 9.37L2.86 15.62C2.86 18.31 4.6 20.05 7.29 20.05L17.7 20.05C20.39 20.05 22.13 18.31 22.13 15.62L22.13 9.37C22.13 6.68 20.39 4.94 17.7 4.94L7.29 4.94Z" fill="#6C3EB8" fill-opacity="1.000000" fill-rule="nonzero"/>
		<path d="M11.03 16.17C10.72 16.17 10.43 16.1 10.17 15.95C9.57 15.61 9.21 14.91 9.21 14.05L9.21 10.96C9.21 10.1 9.56 9.4 10.17 9.06C10.78 8.71 11.56 8.78 12.3 9.22L14.87 10.77C15.58 11.19 15.98 11.83 15.98 12.51C15.98 13.18 15.58 13.82 14.87 14.25L12.3 15.79C11.87 16.04 11.43 16.17 11.03 16.17ZM11.03 10.38C10.99 10.38 10.96 10.39 10.93 10.4C10.86 10.44 10.78 10.63 10.78 10.95L10.78 14.04C10.78 14.35 10.86 14.54 10.93 14.59C11.02 14.63 11.21 14.61 11.48 14.44L14.06 12.9C14.32 12.75 14.41 12.59 14.41 12.5C14.41 12.4 14.32 12.26 14.06 12.09L11.48 10.55C11.3 10.43 11.13 10.38 11.03 10.38Z" fill="#6C3EB8" fill-opacity="1.000000" fill-rule="nonzero"/>
	</g>
</svg>
