<svg width="24.000000" height="24.000000" viewBox="0 0 24 24" fill="none" xmlns="http://www.w3.org/2000/svg" xmlns:xlink="http://www.w3.org/1999/xlink">
	<desc>
			Created with Pixso.
	</desc>
	<defs>
		<clipPath id="clip9_3">
			<rect id="16051444861606988091 1" rx="-0.500000" width="23.000000" height="23.000000" transform="translate(0.500000 0.500000)" fill="white" fill-opacity="0"/>
		</clipPath>
	</defs>
	<rect id="16051444861606988091 1" rx="-0.500000" width="23.000000" height="23.000000" transform="translate(0.500000 0.500000)" fill="#FFFFFF" fill-opacity="0"/>
	<g clip-path="url(#clip9_3)">
		<path id="Vector" d="M20.94 18.06L19.26 8.31C19.14 7.47 18.74 6.71 18.11 6.15C17.49 5.59 16.69 5.27 15.85 5.25L15.75 5.25C15.75 4.25 15.35 3.3 14.65 2.59C13.94 1.89 12.99 1.5 12 1.5C11 1.5 10.05 1.89 9.34 2.59C8.64 3.3 8.25 4.25 8.25 5.25L8.14 5.25C7.3 5.27 6.5 5.59 5.88 6.15C5.25 6.71 4.85 7.47 4.73 8.31L3.06 18.06C2.95 18.62 2.97 19.2 3.12 19.76C3.27 20.31 3.53 20.83 3.9 21.27C4.21 21.65 4.6 21.96 5.05 22.17C5.49 22.38 5.97 22.49 6.46 22.5L17.53 22.5C18.02 22.49 18.5 22.38 18.95 22.17C19.39 21.96 19.78 21.65 20.09 21.27C20.46 20.83 20.72 20.31 20.87 19.76C21.02 19.2 21.04 18.62 20.94 18.06ZM12 3C12.59 3 13.16 3.23 13.59 3.65C14.01 4.08 14.25 4.65 14.25 5.25L9.75 5.25C9.75 4.65 9.98 4.08 10.4 3.65C10.83 3.23 11.4 3 12 3ZM18.94 20.31C18.77 20.52 18.56 20.69 18.31 20.81C18.07 20.93 17.8 20.99 17.53 21L6.46 21C6.19 20.99 5.92 20.93 5.68 20.81C5.43 20.69 5.22 20.52 5.05 20.31C4.82 20.03 4.66 19.71 4.57 19.37C4.48 19.02 4.47 18.66 4.53 18.31L6.21 8.56C6.27 8.08 6.49 7.63 6.85 7.3C7.2 6.97 7.66 6.77 8.14 6.75L15.85 6.75C16.33 6.77 16.79 6.97 17.15 7.3C17.5 7.63 17.72 8.08 17.78 8.56L19.46 18.31C19.52 18.66 19.51 19.02 19.42 19.37C19.33 19.71 19.17 20.03 18.94 20.31Z" fill="#B8B8B8" fill-opacity="1.000000" fill-rule="nonzero"/>
	</g>
</svg>
