<svg width="22.000000" height="19.130432" viewBox="0 0 22 19.1304" fill="none" xmlns="http://www.w3.org/2000/svg" xmlns:xlink="http://www.w3.org/1999/xlink">
	<desc>
			Created with Pixso.
	</desc>
	<defs>
		<clipPath id="clip7_243">
			<rect id="20544442431551942822 1" rx="-0.500000" width="21.000000" height="18.130434" transform="translate(0.500000 0.500000)" fill="white" fill-opacity="0"/>
		</clipPath>
	</defs>
	<rect id="20544442431551942822 1" rx="-0.500000" width="21.000000" height="18.130434" transform="translate(0.500000 0.500000)" fill="#FFFFFF" fill-opacity="0"/>
	<g clip-path="url(#clip7_243)">
		<path id="Vector" d="M19.74 11.54C21.13 10.95 22.07 9.73 21.99 8.16C21.97 7.72 21.87 7.29 21.71 6.88C21.56 6.51 21.32 6.2 21.15 5.84C20.8 5.09 20.64 4.27 20.35 3.51C19.09 0.21 14.98 -0.78 12.01 0.6C10.68 1.22 9.65 2.33 8.99 3.65C10.01 3.3 11.16 3.5 12 4.19C11.97 4.24 11.94 4.28 11.91 4.33C10.51 3.29 8.47 3.77 7.66 5.33C6.87 6.83 7.56 8.75 9.1 9.4C10.04 9.79 11.13 9.65 11.94 9.03C11.97 9.08 12.01 9.12 12.05 9.16C11.11 9.96 9.75 10.13 8.65 9.59C9.05 10.24 9.61 10.78 10.25 11.18C9.78 12.06 9.45 13.04 9.43 14.04C9.41 14.95 9.46 15.94 9.78 16.8C8.96 16.78 8.01 16.62 7.44 15.96C6.89 15.34 6.78 14.44 6.78 13.64C6.79 12.65 7 11.71 7.13 10.74C7.26 9.77 7.18 8.76 6.77 7.87C5.95 6.08 3.75 5.03 1.92 5.87C0.13 6.69 -0.74 9.16 0.76 10.7C1.36 11.33 2.29 11.66 3.14 11.4C3.93 11.16 4.56 10.43 4.64 9.59C4.73 8.74 4.15 7.85 3.31 7.68C2.88 7.59 2.47 7.92 2.5 8.37C2.52 8.57 2.62 8.76 2.78 8.87C2.96 9 3.19 8.99 3.29 9.21C3.5 9.64 3.04 10.09 2.65 10.15C2.19 10.22 1.72 9.89 1.49 9.51C0.96 8.62 1.58 7.51 2.42 7.11C3.22 6.71 4.19 6.94 4.86 7.5C5.45 7.98 5.77 8.71 5.85 9.46C5.96 10.39 5.68 11.32 5.56 12.24C5.45 13.17 5.41 14.12 5.6 15.04C5.77 15.88 6.17 16.67 6.84 17.22C7.51 17.77 8.36 18.02 9.21 18.1C9.74 18.15 10.27 18.14 10.8 18.1C11.05 18.25 11.33 18.37 11.67 18.45C11.79 18.85 12.15 19.12 12.56 19.12L20.96 19.12C22 19.12 22.01 17.84 21.88 17.1C21.74 16.32 21.35 15.6 20.7 15.15C20.69 13.77 20.3 12.64 19.74 11.54ZM11.37 7.83C11.12 8.09 10.77 8.26 10.39 8.26C9.65 8.26 9.04 7.64 9.04 6.88C9.04 6.13 9.65 5.51 10.39 5.51C10.76 5.51 11.09 5.66 11.34 5.91C11.3 6.21 11.27 6.55 11.27 6.93C11.27 7.27 11.31 7.57 11.37 7.83ZM14.47 7.93C14.6 7.23 15.08 6.62 15.38 5.99C15.64 5.44 15.81 4.83 16.15 4.32C16.78 3.4 17.86 2.85 18.96 2.9C19.51 3.67 19.7 4.6 20.01 5.48C20.14 5.87 20.28 6.25 20.5 6.6C20.76 7.01 20.95 7.44 21.03 7.93L20.8 7.85C20.46 7.71 20.24 8.25 20.46 8.47L20.9 8.92C20.93 8.95 20.96 8.97 20.98 8.98C20.6 10.53 18.79 10.98 17.44 11.11C15.87 11.01 14.13 9.7 14.47 7.93ZM18.97 18.03L12.69 18.03L12.69 18.03L12.68 18.03C12.66 17.81 12.64 17.61 12.77 17.42C12.92 17.22 13.17 17.09 13.4 16.98C14.07 16.65 14.82 16.48 15.55 16.36C16.3 16.23 17.17 16.1 17.91 16.34C18.62 16.58 19.09 17.26 18.97 18.03ZM19.26 17.73C19.19 16.7 18.44 16.06 17.46 15.96C18.09 15.91 18.78 15.91 19.31 16.33C19.78 16.72 19.99 17.42 19.91 18.03L19.26 18.03C19.27 17.93 19.27 17.83 19.26 17.73ZM20.08 17.02C19.88 16.37 19.38 15.92 18.75 15.75C19.37 15.73 20 15.85 20.42 16.36C20.78 16.8 20.92 17.47 20.84 18.03L20.19 18.03C20.23 17.69 20.19 17.34 20.08 17.02ZM19.95 15.04C19.95 15.24 19.94 15.44 19.9 15.64C19.54 15.49 19.15 15.45 18.76 15.46C18.46 14.36 18.62 13.14 19.23 12.18C19.64 13.06 19.95 14.05 19.95 15.04ZM17.9 6.84C17.88 6.24 18.21 5.74 18.63 5.72C19.06 5.71 19.41 6.19 19.43 6.79C19.45 7.4 19.12 7.9 18.7 7.91C18.28 7.93 17.92 7.45 17.9 6.84Z" fill="#753F8C" fill-opacity="1.000000" fill-rule="nonzero"/>
	</g>
</svg>
