<svg width="13.000000" height="13.000000" viewBox="0 0 13 13" fill="none" xmlns="http://www.w3.org/2000/svg" xmlns:xlink="http://www.w3.org/1999/xlink">
	<desc>
			Created with Pixso.
	</desc>
	<defs>
		<clipPath id="clip9_19">
			<rect id="5036916221558965373 1" rx="-0.500000" width="12.000000" height="12.000000" transform="translate(0.500000 0.500000)" fill="white" fill-opacity="0"/>
		</clipPath>
	</defs>
	<rect id="5036916221558965373 1" rx="-0.500000" width="12.000000" height="12.000000" transform="translate(0.500000 0.500000)" fill="#FFFFFF" fill-opacity="0"/>
	<g clip-path="url(#clip9_19)">
		<path id="Vector" d="M12.84 12.07L9.6 8.84C10.48 7.76 10.92 6.39 10.81 5C10.71 3.61 10.07 2.32 9.04 1.38C8.01 0.45 6.66 -0.05 5.27 -0.02C3.88 0.02 2.55 0.59 1.57 1.57C0.59 2.55 0.02 3.88 -0.02 5.27C-0.05 6.66 0.45 8.01 1.38 9.04C2.32 10.07 3.61 10.71 5 10.81C6.39 10.92 7.76 10.48 8.84 9.6L12.07 12.84C12.17 12.93 12.31 12.98 12.45 12.97C12.59 12.97 12.72 12.91 12.82 12.82C12.91 12.72 12.97 12.59 12.97 12.45C12.98 12.31 12.93 12.17 12.84 12.07ZM5.41 9.74C4.55 9.75 3.72 9.49 3 9.02C2.29 8.54 1.73 7.86 1.41 7.07C1.08 6.28 0.99 5.41 1.16 4.57C1.33 3.72 1.74 2.95 2.35 2.35C2.95 1.74 3.72 1.33 4.57 1.16C5.41 0.99 6.28 1.08 7.07 1.41C7.86 1.73 8.54 2.29 9.02 3C9.49 3.72 9.75 4.55 9.75 5.41C9.74 6.56 9.29 7.66 8.47 8.47C7.66 9.29 6.56 9.74 5.41 9.74Z" fill="#576067" fill-opacity="1.000000" fill-rule="nonzero"/>
	</g>
</svg>
